# xmcd
#
# Track frame offsets:
#	150
#	21072
#	43869
#	57183
#	72221
#	92357
#	110131
#	127136
#	140432
#	163855
#	180797
#	198864
#	211768
#	230529
#	243440
#	263866
#	278286
#	295553
#	311370
#	328359
#
# Disc length: 4578 seconds
# Revision: 0
# Processed by: cddbd v1.5.2PL0 Copyright (c) Steve Scherf et al.
# Submitted via: dBpowerAMP V12.0
#
DISCID=1a11e014
DTITLE=Various Artist - Country Radio January 2008
DYEAR=2008
DGENRE=Country
TTITLE0=Alan Jackson - Small Town Southern Man
TTITLE1=Reba McEntire Feat Justin Timberlake - The Only Promise That Remains
TTITLE2=ALex J Robinson - Breakin On The Love Thing
TTITLE3=Emerson Drive - Everyday Woman
TTITLE4=Kenny Chesney With George Strait - Shiftwork
TTITLE5=Phil Vassar - Love Is A Beautiful Thing
TTITLE6=Josh Gracin - We Weren't Crazy
TTITLE7=Jack Ingram - Maybe She'll Get Lonely
TTITLE8=Tim McGraw - Suspicions
TTITLE9=Halfway To Hazard - Devil and The Cross
TTITLE10=Flynnville Train - Tequila Sheila
TTITLE11=Chris Cummings - In The Nicest Way
TTITLE12=Nikki Werner - How Can You Love Someone
TTITLE13=Amber Nicholson - Afraid To Love
TTITLE14=Rascal Flatts - He Ain't The Leavin Kind
TTITLE15=Wiskey Falls - Falling Into You
TTITLE16=Vince Gill - How Lonely Looks
TTITLE17=Drew David Band The - Back There All The Time
TTITLE18=Deana Carter Feat Willie Nelson - On The Road Again
TTITLE19=Hal Ketchum - One More Midnight
EXTD=
EXTT0=
EXTT1=
EXTT2=
EXTT3=
EXTT4=
EXTT5=
EXTT6=
EXTT7=
EXTT8=
EXTT9=
EXTT10=
EXTT11=
EXTT12=
EXTT13=
EXTT14=
EXTT15=
EXTT16=
EXTT17=
EXTT18=
EXTT19=
PLAYORDER=
